<?xml version="1.0" standalone="no"?>
<!DOCTYPE svg PUBLIC "-//W3C//DTD SVG 20010904//EN"
 "http://www.w3.org/TR/2001/REC-SVG-20010904/DTD/svg10.dtd">
<svg version="1.0" xmlns="http://www.w3.org/2000/svg"
 width="1000.000000pt" height="1000.000000pt" viewBox="0 0 1000.000000 1000.000000"
 preserveAspectRatio="xMidYMid meet">
<metadata>
Created by potrace 1.11, written by Peter Selinger 2001-2013
</metadata>
<g transform="translate(0.000000,1000.000000) scale(0.100000,-0.100000)"
fill="#000000" stroke="none">
<path d="M4090 7761 c0 -1183 -2 -2151 -4 -2151 -2 0 -921 358 -2041 795
-1121 437 -2039 795 -2041 795 -2 0 -4 -1174 -4 -2609 0 -2078 3 -2610 13
-2614 6 -2 1127 -440 2490 -971 l2477 -967 2510 903 2510 902 0 2608 c0 1434
-2 2608 -5 2608 -3 0 -746 -266 -802 -287 -10 -4 -13 149 -13 744 l0 749
-2529 817 c-1392 450 -2537 820 -2545 823 -15 6 -16 -198 -16 -2145z"/>
</g>
</svg>
