<?xml version="1.0" standalone="no"?>
<!DOCTYPE svg PUBLIC "-//W3C//DTD SVG 20010904//EN"
 "http://www.w3.org/TR/2001/REC-SVG-20010904/DTD/svg10.dtd">
<svg version="1.0" xmlns="http://www.w3.org/2000/svg"
 width="1000.000000pt" height="1000.000000pt" viewBox="0 0 1000.000000 1000.000000"
 preserveAspectRatio="xMidYMid meet">
<metadata>
Created by potrace 1.11, written by Peter Selinger 2001-2013
</metadata>
<g transform="translate(0.000000,1000.000000) scale(0.100000,-0.100000)"
fill="#000000" stroke="none">
<path d="M680 8380 l0 -700 74 0 75 0 3 303 3 304 27 40 c18 28 45 50 83 68
49 24 64 27 121 22 83 -6 133 -37 165 -104 23 -47 24 -56 27 -340 l3 -293 75
0 75 0 -3 318 -3 317 -34 69 c-24 50 -45 76 -78 99 -119 85 -278 87 -403 6
l-60 -39 0 315 0 315 -75 0 -75 0 0 -700z"/>
<path d="M2153 8535 c-89 -19 -175 -69 -235 -134 -225 -246 -106 -641 217
-726 67 -17 189 -19 254 -4 153 35 284 157 326 304 13 44 16 83 13 157 -4 85
-9 106 -38 165 -95 192 -310 287 -537 238z m261 -159 c106 -52 159 -142 160
-271 0 -125 -48 -210 -154 -273 -41 -25 -54 -27 -150 -27 -119 0 -154 13 -224
81 -61 59 -81 113 -81 219 0 75 4 97 24 135 42 81 113 139 196 161 60 16 170
4 229 -25z"/>
<path d="M3010 8514 c0 -4 50 -108 111 -233 61 -124 151 -311 202 -414 l91
-188 50 3 50 3 120 298 c66 164 122 294 124 290 1 -4 55 -138 120 -298 l117
-290 50 -3 51 -3 202 413 c111 227 202 416 202 421 0 4 -38 7 -84 7 l-84 0
-138 -300 c-76 -165 -140 -300 -143 -300 -3 0 -59 135 -124 300 l-119 300 -53
0 -53 0 -117 -295 c-65 -163 -121 -298 -125 -300 -7 -5 -15 11 -174 360 l-105
230 -86 3 c-47 1 -85 0 -85 -4z"/>
<path d="M680 6655 l0 -695 75 0 75 0 0 66 0 67 50 -47 c28 -26 76 -59 108
-74 51 -24 69 -27 167 -27 100 0 115 2 167 28 175 86 270 277 239 483 -50 338
-441 489 -685 264 l-46 -43 0 337 0 336 -75 0 -75 0 0 -695z m581 -2 c104 -58
155 -163 147 -298 -14 -221 -227 -346 -424 -250 -99 48 -155 146 -156 269 0
114 33 193 108 255 57 46 107 61 195 58 63 -3 86 -9 130 -34z"/>
<path d="M4530 6655 l0 -695 75 0 75 0 2 180 3 180 163 -180 163 -180 94 0
c52 0 95 2 95 5 0 3 -87 100 -192 216 -106 116 -193 216 -193 224 0 7 83 98
185 201 l185 189 -100 3 -100 3 -152 -158 -153 -158 0 433 0 432 -75 0 -75 0
0 -695z"/>
<path d="M2295 6820 c-70 -13 -131 -37 -193 -78 -65 -42 -104 -88 -145 -172
-31 -62 -32 -69 -32 -185 1 -150 20 -207 102 -296 97 -104 202 -149 351 -149
100 0 168 16 243 56 241 129 301 470 119 677 -100 114 -286 175 -445 147z
m216 -157 c104 -46 168 -138 177 -254 10 -136 -46 -240 -161 -298 -60 -31 -76
-35 -145 -35 -93 1 -157 25 -219 86 -60 59 -87 126 -87 218 -1 149 87 264 229
301 49 13 157 4 206 -18z"/>
<path d="M3595 6824 c-114 -16 -200 -57 -277 -135 -209 -208 -152 -565 112
-699 69 -35 137 -50 231 -50 134 0 234 36 320 117 96 90 139 190 139 324 0
197 -113 357 -296 417 -60 20 -175 33 -229 26z m186 -157 c71 -30 116 -74 150
-143 29 -59 34 -78 33 -144 0 -93 -27 -159 -87 -218 -62 -61 -126 -85 -219
-86 -69 0 -85 4 -145 35 -115 58 -171 162 -161 298 10 129 86 226 210 267 52
17 169 12 219 -9z"/>
<path d="M5772 6819 c-131 -22 -212 -107 -212 -225 0 -69 27 -122 81 -160 21
-14 89 -48 151 -74 62 -27 126 -60 143 -73 26 -21 30 -31 30 -75 0 -109 -103
-175 -224 -142 -45 12 -120 73 -149 122 -9 15 -20 28 -23 28 -4 0 -24 -20 -44
-44 -42 -52 -41 -59 28 -133 63 -68 125 -96 228 -101 200 -10 326 85 337 254
9 137 -38 188 -253 273 -114 45 -153 73 -160 115 -18 94 95 155 203 111 20 -9
53 -32 73 -51 l36 -35 36 48 37 48 -38 34 c-75 68 -175 96 -280 80z"/>
<path d="M1710 5900 c13 -9 13 -10 0 -10 -13 0 -13 -1 0 -10 10 -6 11 -10 3
-10 -10 0 -13 -255 -13 -1244 l0 -1243 -78 -5 c-92 -5 -160 -37 -222 -104
l-39 -42 -16 25 c-92 140 -334 167 -477 53 l-38 -31 0 41 0 40 -75 0 -75 0 0
-420 0 -420 75 0 74 0 3 304 3 304 31 39 c45 55 109 85 181 85 70 0 99 -10
137 -48 58 -58 60 -72 64 -391 l4 -293 74 0 74 0 0 290 c0 316 2 331 56 382
55 51 155 76 222 54 l22 -7 0 -499 c0 -389 3 -499 13 -503 9 -4 9 -6 0 -6 -22
-2 -14 -27 12 -41 16 -9 21 -16 14 -20 -6 -5 2 -12 20 -18 17 -6 31 -8 31 -5
0 3 7 0 15 -7 10 -9 15 -9 15 -1 0 6 9 2 21 -10 12 -12 29 -19 39 -16 11 3 21
-2 25 -11 3 -8 8 -12 12 -9 3 4 15 0 26 -8 18 -13 23 -13 41 3 20 16 20 16 7
0 -12 -16 -9 -22 12 -19 4 0 7 -4 7 -10 0 -6 6 -9 12 -7 7 3 19 -2 26 -9 8 -8
23 -11 34 -7 12 3 18 2 15 -3 -5 -7 46 -33 73 -38 12 -2 178 -69 204 -82 15
-8 26 -11 23 -5 -4 5 0 9 8 9 8 0 12 -4 9 -8 -6 -11 63 -41 94 -41 13 0 20 -3
17 -6 -8 -8 55 -33 66 -26 5 3 9 0 9 -7 0 -7 3 -10 6 -7 3 4 17 0 32 -8 20
-10 28 -11 34 -1 5 8 8 6 8 -7 0 -12 5 -16 14 -13 8 3 16 2 18 -2 4 -12 189
-85 211 -83 10 0 15 -4 11 -10 -5 -7 -2 -9 9 -5 9 3 17 1 19 -5 2 -6 19 -11
36 -11 21 0 28 -3 20 -9 -10 -6 -10 -8 0 -9 27 -3 31 -4 38 -11 4 -5 12 -8 18
-8 6 0 4 5 -4 10 -9 6 -10 10 -3 10 7 0 16 -7 21 -16 5 -8 15 -16 23 -17 8 -2
20 -6 27 -10 6 -5 17 -5 24 -1 7 5 8 3 3 -6 -6 -10 -4 -12 8 -7 10 4 17 2 17
-4 0 -6 9 -9 20 -6 11 3 23 0 28 -7 6 -11 84 -45 115 -50 6 -1 31 -12 55 -24
23 -13 47 -20 52 -17 6 3 10 2 10 -2 0 -5 14 -14 32 -21 25 -9 34 -9 40 1 7
11 12 2 9 -17 -1 -5 5 -6 14 -3 8 4 15 2 15 -4 0 -6 4 -8 9 -5 5 4 11 1 13 -4
2 -6 13 -12 26 -13 12 0 22 -5 22 -9 0 -4 9 -8 19 -8 11 0 23 -4 26 -10 9 -15
27 -12 20 3 -4 6 0 4 8 -5 8 -10 17 -15 20 -11 4 3 7 1 7 -5 0 -7 3 -11 8 -10
4 1 29 -8 56 -20 26 -12 52 -19 57 -16 5 3 9 -1 9 -8 0 -9 3 -9 10 2 7 11 10
11 10 2 0 -7 5 -10 10 -7 6 4 7 12 3 18 -4 7 0 7 10 -1 9 -8 22 -10 28 -6 8 5
9 3 5 -5 -5 -7 -14 -10 -22 -7 -8 3 -14 1 -14 -3 0 -12 30 -22 42 -14 6 3 8 2
5 -4 -7 -12 62 -35 76 -26 6 3 7 1 3 -5 -4 -7 -1 -13 6 -13 27 -3 34 -5 64
-21 24 -13 34 -14 44 -5 10 9 11 9 6 0 -7 -12 31 -39 41 -29 3 3 12 -2 21 -10
8 -9 23 -13 34 -11 10 3 16 2 13 -3 -6 -10 24 -22 36 -14 5 3 6 10 3 16 -4 7
-2 8 4 4 6 -4 8 -14 5 -23 -4 -10 -2 -14 4 -10 6 4 13 2 15 -4 3 -9 13 -7 34
6 16 9 21 11 12 2 -19 -15 -25 -33 -9 -23 5 4 11 2 13 -4 1 -5 12 -11 23 -13
25 -5 55 -16 79 -28 12 -7 16 -7 12 0 -4 5 -2 13 4 16 6 4 10 3 9 -2 -3 -20 2
-34 11 -28 6 4 7 11 4 17 -4 7 -2 8 5 4 6 -4 9 -11 7 -15 -3 -4 11 -15 30 -25
28 -13 39 -14 50 -5 12 10 13 9 8 -5 -4 -9 -3 -16 2 -14 5 1 24 -6 43 -16 18
-10 42 -16 52 -13 11 3 17 2 14 -2 -6 -10 94 -53 106 -46 5 4 9 1 9 -5 0 -8 9
-10 24 -6 14 3 28 2 31 -4 3 -6 -2 -8 -12 -5 -10 3 2 -4 26 -16 25 -12 55 -22
68 -22 12 0 20 -3 18 -7 -4 -6 23 -18 55 -24 3 -1 10 -5 17 -9 6 -4 14 -1 16
5 3 8 6 6 6 -4 1 -10 5 -18 10 -18 5 0 16 -2 23 -5 8 -3 24 4 36 15 26 24 30
15 5 -12 -10 -11 -12 -18 -5 -19 21 -2 27 -4 50 -17 18 -10 22 -10 22 0 0 9 3
9 10 -2 6 -10 10 290 10 845 l0 860 23 -2 c170 -16 259 -4 357 48 61 33 160
128 160 155 0 8 -24 26 -52 40 l-53 25 -56 -54 c-80 -77 -175 -105 -290 -85
-91 16 -91 16 -93 156 l-1 122 285 2 285 3 3 38 c8 93 -40 218 -115 298 -102
109 -241 152 -405 124 -52 -8 -65 -8 -57 1 6 7 8 107 7 255 l-3 244 -55 16
c-30 8 -62 18 -70 22 -8 3 -37 13 -65 21 -27 8 -76 24 -109 36 -32 12 -65 19
-73 16 -8 -3 -12 -2 -9 3 6 9 -81 38 -98 33 -5 -2 -12 2 -16 9 -6 8 -13 8 -29
0 -16 -9 -19 -9 -16 1 4 9 -14 20 -47 33 -29 10 -56 18 -60 17 -12 -3 -10 16
2 23 13 8 13 604 0 625 -6 9 -5 17 2 21 16 10 0 29 -19 22 -10 -4 -14 -2 -10
4 6 10 -41 28 -58 23 -3 -1 -17 6 -31 14 -23 16 -29 13 -24 -9 1 -5 -2 -6 -7
-2 -4 5 -8 14 -8 20 0 6 -27 21 -60 34 -118 47 -133 51 -146 39 -9 -8 -11 -7
-6 5 7 22 -72 56 -85 36 -5 -8 -8 -7 -8 6 0 15 -13 21 -47 20 -7 -1 -10 3 -7
8 8 14 -20 11 -36 -3 -12 -11 -12 -10 -2 3 10 14 10 18 -4 23 -9 3 -20 4 -25
0 -5 -3 -9 0 -9 6 0 6 -4 8 -10 5 -5 -3 -10 -1 -10 5 0 6 -4 9 -9 5 -5 -3 -12
-1 -16 5 -3 5 -11 10 -17 10 -6 0 -5 -7 3 -17 13 -15 12 -15 -9 -4 -12 7 -20
16 -17 22 5 8 -9 13 -18 7 -2 -2 -12 4 -22 12 -17 13 -18 13 -11 0 4 -8 1 -7
-8 4 -8 10 -19 15 -25 11 -6 -3 -11 -2 -11 3 0 7 -68 35 -90 37 -3 1 -18 8
-35 17 -27 13 -85 32 -93 28 -1 0 -10 6 -18 15 -10 10 -24 13 -36 9 -13 -4
-18 -2 -14 4 3 5 -1 13 -10 16 -24 9 -31 7 -14 -4 9 -6 10 -10 3 -10 -7 0 -16
7 -21 16 -5 9 -21 17 -35 17 -16 0 -24 4 -20 10 4 6 0 8 -8 5 -8 -3 -23 0 -33
8 -11 7 -23 11 -27 8 -5 -3 -9 0 -9 7 0 7 -3 10 -6 6 -3 -3 -28 6 -55 20 -28
13 -57 22 -64 19 -8 -3 -19 3 -24 12 -8 14 -10 14 -11 2 0 -10 -3 -11 -8 -4
-9 14 -52 37 -52 28 0 -3 10 -14 22 -23 16 -14 18 -20 8 -26 -8 -5 -11 -4 -6
3 3 6 -3 16 -14 22 -11 6 -20 17 -20 24 0 20 -84 45 -107 33 -15 -9 -16 -8 -5
5 11 14 6 15 -37 14 -28 -1 -47 2 -45 6 3 5 15 6 27 3 21 -6 21 -6 3 9 -16 13
-22 13 -35 3 -11 -9 -13 -9 -8 0 8 12 -30 39 -40 29 -3 -3 -12 2 -21 10 -8 9
-23 13 -34 11 -10 -3 -16 -2 -13 3 6 10 -24 22 -36 14 -5 -3 -7 -9 -4 -14 7
-11 -37 -6 -61 8 -25 15 -9 15 18 1 13 -7 24 -7 30 -1 11 11 -1 21 -34 27 -12
3 -24 9 -28 15 -3 5 -16 11 -28 13 -12 2 -25 6 -28 10 -4 4 -14 7 -23 7 -9 0
-29 7 -46 16 -16 8 -38 13 -47 11 -10 -3 -16 -1 -13 3 3 5 -3 14 -14 19 -29
16 -38 13 -15 -4 10 -8 14 -15 7 -15 -6 0 -18 8 -25 18 -12 16 -69 46 -83 43
-3 -1 -27 10 -55 24 -27 14 -57 26 -67 28 -10 2 -28 8 -40 15 -30 17 -38 15
-22 -5 13 -15 12 -15 -8 -2 -12 7 -20 15 -17 18 5 6 -129 61 -164 67 -13 3
-21 1 -18 -4 3 -5 -1 -9 -9 -9 -11 0 -12 4 -4 14 9 10 7 14 -7 19 -11 4 -23
10 -29 12 -7 4 -7 1 0 -9 6 -8 3 -7 -7 3 -9 10 -22 18 -29 18 -7 0 -31 9 -53
19 -23 11 -50 21 -61 23 -11 2 -23 7 -26 12 -4 5 -20 9 -37 10 -17 0 -28 4
-26 7 2 4 -3 10 -12 13 -24 9 -31 7 -14 -4z m90 -50 c8 -5 11 -10 5 -10 -5 0
-17 5 -25 10 -8 5 -10 10 -5 10 6 0 17 -5 25 -10z m130 -74 c0 -2 -7 -7 -16
-10 -8 -3 -12 -2 -9 4 6 10 25 14 25 6z m173 -55 c-4 -3 -11 -10 -15 -15 -4
-4 -6 1 -5 12 1 12 6 18 15 15 7 -3 10 -9 5 -12z m14 -26 c0 -8 -4 -12 -9 -9
-5 3 -6 10 -3 15 9 13 12 11 12 -6z m73 1 c0 -2 -7 -7 -16 -10 -8 -3 -12 -2
-9 4 6 10 25 14 25 6z m240 -80 c0 -2 -9 -6 -20 -9 -11 -3 -18 -1 -14 4 5 9
34 13 34 5z m725 -306 c3 -6 -1 -7 -9 -4 -18 7 -21 14 -7 14 6 0 13 -4 16 -10z
m171 -78 c-6 -5 -36 23 -36 34 0 4 9 -1 20 -11 11 -10 18 -20 16 -23z m-1214
-131 c-3 -9 -1 -12 6 -7 6 3 13 3 16 -2 9 -16 -24 -9 -39 8 -13 14 -12 16 4
16 12 0 17 -5 13 -15z m100 -17 c-9 -7 -19 -10 -22 -7 -3 3 1 8 8 10 10 4 10
8 0 21 -12 14 -11 14 9 2 20 -13 20 -15 5 -26z m101 23 c-3 -5 -12 -6 -20 -3
-9 4 -21 2 -28 -4 -9 -7 -14 -7 -18 2 -3 10 6 13 33 13 21 0 36 -3 33 -8z
m212 -6 c-8 -14 -25 -14 -25 0 0 5 5 7 10 4 6 -3 10 -1 10 6 0 7 3 10 6 6 3
-3 3 -10 -1 -16z m905 -7 c0 -2 -9 0 -20 6 -11 6 -20 13 -20 16 0 2 9 0 20 -6
11 -6 20 -13 20 -16z m-370 11 c0 -1 -11 -12 -24 -24 -23 -21 -31 -12 -14 15
6 8 38 16 38 9z m-1112 -40 c-3 -3 -9 2 -12 12 -6 14 -5 15 5 6 7 -7 10 -15 7
-18z m587 15 c-3 -5 -12 -10 -18 -10 -7 0 -6 4 3 10 19 12 23 12 15 0z m458
-21 c-8 -8 -13 -7 -18 2 -6 8 -4 10 5 4 10 -6 12 -4 6 11 -6 15 -5 17 5 7 9
-10 10 -16 2 -24z m-810 6 c4 -8 1 -17 -6 -21 -7 -4 -9 -4 -5 1 4 4 3 14 -3
22 -7 8 -8 13 -1 13 5 0 12 -7 15 -15z m-28 -5 c3 -6 -1 -7 -9 -4 -18 7 -21
14 -7 14 6 0 13 -4 16 -10z m390 -10 c4 -6 -1 -7 -11 -3 -13 5 -15 3 -9 -7 5
-9 4 -11 -4 -6 -6 4 -9 12 -6 17 8 12 22 12 30 -1z m1033 -51 c-17 -10 -28 -2
-21 17 4 11 8 12 20 3 11 -10 11 -14 1 -20z m-1058 3 c0 -5 -7 -17 -15 -28
-14 -18 -14 -17 -4 9 12 27 19 34 19 19z m400 -2 c0 -5 -6 -9 -12 -7 -7 1 -12
-4 -10 -11 1 -8 -2 -11 -8 -7 -8 5 -7 11 1 21 13 16 29 18 29 4z m1048 -9 c10
-6 8 -10 -9 -14 -13 -4 -25 -4 -28 -2 -2 3 1 5 8 5 7 0 9 5 6 10 -8 12 5 13
23 1z m69 -17 c-6 -6 -47 9 -47 17 0 5 11 3 25 -3 14 -6 24 -13 22 -14z
m-1493 0 c3 -8 2 -12 -4 -9 -6 3 -10 10 -10 16 0 14 7 11 14 -7z m-67 -29 c0
-8 -4 -12 -9 -9 -5 3 -6 10 -3 15 9 13 12 11 12 -6z m837 4 c-3 -6 0 -15 7
-20 8 -5 10 -9 4 -9 -5 0 -17 5 -25 10 -13 9 -13 11 0 20 20 13 23 12 14 -1z
m340 -29 c-6 -5 -24 21 -24 34 0 6 6 1 14 -10 8 -10 12 -21 10 -24z m-1356 21
c11 -6 10 -10 -4 -15 -9 -3 -19 -4 -22 -1 -3 3 1 5 9 5 11 0 11 2 -1 10 -8 5
-10 10 -5 10 6 0 16 -4 23 -9z m818 -8 c-2 -10 -12 -18 -23 -18 -11 0 -27 -6
-36 -14 -11 -8 -17 -9 -17 -3 0 16 36 33 55 26 9 -4 15 -3 14 2 -2 13 0 24 5
24 2 0 3 -8 2 -17z m264 -17 c0 -10 -30 0 -34 11 -4 11 -1 11 14 3 11 -6 20
-12 20 -14z m-550 10 c0 -2 -8 -10 -17 -17 -16 -13 -17 -12 -4 4 13 16 21 21
21 13z m1380 0 c0 -2 -7 -7 -16 -10 -8 -3 -12 -2 -9 4 6 10 25 14 25 6z
m-1995 -16 c3 -5 1 -10 -4 -10 -6 0 -11 5 -11 10 0 6 2 10 4 10 3 0 8 -4 11
-10z m209 2 c3 -5 -1 -9 -9 -9 -8 0 -12 4 -9 9 3 4 7 8 9 8 2 0 6 -4 9 -8z
m1214 -17 c-3 -3 -9 2 -12 12 -6 14 -5 15 5 6 7 -7 10 -15 7 -18z m-301 -7
c-3 -8 -6 -5 -6 6 -1 11 2 17 5 13 3 -3 4 -12 1 -19z m-502 2 c-3 -5 -12 -10
-18 -10 -7 0 -6 4 3 10 19 12 23 12 15 0z m259 2 c2 -4 -4 -8 -14 -8 -10 0
-16 4 -14 8 3 4 9 8 14 8 5 0 11 -4 14 -8z m1116 -2 c0 -5 -7 -7 -15 -4 -8 4
-15 8 -15 10 0 2 7 4 15 4 8 0 15 -4 15 -10z m-2034 -28 c-17 -16 -18 -16 -5
5 7 12 15 20 18 17 3 -2 -3 -12 -13 -22z m864 -17 c0 -2 -6 -7 -12 -11 -7 -4
-10 -4 -6 1 4 4 0 14 -10 22 -15 13 -15 13 6 3 12 -6 22 -13 22 -15z m630 21
c0 -2 -7 -9 -15 -16 -13 -11 -14 -10 -9 4 5 14 24 23 24 12z m-195 -35 c3 -5
0 -13 -6 -17 -7 -4 -9 -3 -5 4 3 5 0 13 -6 15 -9 4 -10 6 -1 6 6 1 14 -3 18
-8z m188 -8 c-4 -11 -3 -14 5 -9 8 5 10 2 5 -10 -5 -15 -7 -15 -15 0 -5 9 -6
21 -3 26 10 16 15 12 8 -7z m682 7 c-3 -5 -12 -10 -18 -10 -7 0 -6 4 3 10 19
12 23 12 15 0z m68 -5 c-3 -9 -8 -14 -10 -11 -3 3 -2 9 2 15 9 16 15 13 8 -4z
m-2183 -5 c0 -5 -5 -10 -11 -10 -5 0 -7 5 -4 10 3 6 8 10 11 10 2 0 4 -4 4
-10z m1258 -32 c7 -7 12 -16 12 -22 0 -5 -6 -1 -14 9 -8 11 -19 16 -30 12 -10
-4 -15 -3 -11 3 8 14 28 13 43 -2z m1092 -28 c0 -5 -5 -10 -11 -10 -5 0 -7 5
-4 10 3 6 8 10 11 10 2 0 4 -4 4 -10z m-1799 -23 c-6 -8 -9 -16 -6 -18 2 -3
-6 -5 -19 -5 -16 0 -22 4 -19 14 4 10 8 10 13 2 5 -8 11 -6 20 5 7 8 15 15 17
15 3 0 0 -6 -6 -13z m-27 -112 c-4 -8 -11 -12 -16 -9 -6 4 -5 10 3 15 19 12
19 11 13 -6z m29 -50 c4 -8 3 -16 -1 -19 -4 -3 -9 4 -9 15 -2 23 3 25 10 4z
m-36 -27 c-3 -8 -6 -5 -6 6 -1 11 2 17 5 13 3 -3 4 -12 1 -19z m259 3 c-4 -5
-3 -11 1 -14 5 -2 2 -2 -5 0 -9 2 -11 -3 -7 -16 7 -22 -10 -37 -21 -20 -4 8
-3 9 4 5 18 -11 14 5 -5 27 -10 11 -13 18 -8 14 6 -3 17 -2 25 4 19 11 23 11
16 0z m-239 -33 c-3 -8 -6 -5 -6 6 -1 11 2 17 5 13 3 -3 4 -12 1 -19z m823 12
c-8 -5 -19 -10 -25 -10 -5 0 -3 5 5 10 8 5 20 10 25 10 6 0 3 -5 -5 -10z m-80
-3 c0 -2 -9 -12 -20 -22 -24 -21 -27 -14 -4 9 15 15 24 20 24 13z m10 -21 c0
-2 -8 -10 -17 -17 -16 -13 -17 -12 -4 4 13 16 21 21 21 13z m-497 -33 c-3 -7
-6 -13 -8 -13 -2 0 -5 6 -8 13 -3 8 1 14 8 14 7 0 11 -6 8 -14z m462 -3 c3 -5
1 -10 -4 -10 -6 0 -11 5 -11 10 0 6 2 10 4 10 3 0 8 -4 11 -10z m-95 -4 c0 -3
-4 -8 -10 -11 -5 -3 -10 -1 -10 4 0 6 5 11 10 11 6 0 10 -2 10 -4z m-346 -27
c-3 -5 -10 -7 -15 -3 -5 3 -7 10 -3 15 3 5 10 7 15 3 5 -3 7 -10 3 -15z m47 4
c13 -16 12 -17 -3 -4 -17 13 -22 21 -14 21 2 0 10 -8 17 -17z m372 -11 c-10
-10 -20 -17 -22 -15 -2 1 -9 -1 -16 -5 -6 -4 1 3 15 15 30 27 47 31 23 5z
m-382 -34 c-11 -11 -13 -10 -7 0 4 7 2 21 -5 30 -12 15 -11 15 6 0 16 -15 17
-20 6 -30z m562 7 c-3 -9 -8 -14 -10 -11 -3 3 -2 9 2 15 9 16 15 13 8 -4z
m-522 -22 c13 -16 12 -17 -3 -4 -10 7 -18 15 -18 17 0 8 8 3 21 -13z m56 2 c0
-8 -5 -11 -10 -8 -5 3 -13 -1 -18 -8 -6 -9 -9 -10 -9 -2 0 9 19 27 36 33 0 0
1 -7 1 -15z m30 0 c0 -8 -4 -12 -9 -9 -5 3 -6 10 -3 15 9 13 12 11 12 -6z
m178 -4 c-3 -6 -11 -11 -16 -11 -5 0 -4 6 3 14 14 16 24 13 13 -3z m-35 -11
c0 -5 -8 -10 -17 -10 -15 0 -16 2 -3 10 19 12 20 12 20 0z m197 -68 c-10 -10
-14 -22 -10 -27 5 -4 2 -4 -6 0 -11 6 -13 4 -7 -11 6 -15 5 -16 -5 -7 -10 10
-8 18 11 38 27 28 42 35 17 7z m43 -17 c17 -20 1 -38 -20 -24 -12 9 -12 10 3
5 12 -4 17 -2 14 6 -2 7 -11 12 -20 12 -9 -1 -14 2 -11 7 8 13 20 11 34 -6z
m-585 -35 c3 -6 -1 -7 -9 -4 -18 7 -21 14 -7 14 6 0 13 -4 16 -10z m125 -55
c19 -22 8 -25 -12 -3 -10 10 -14 18 -9 18 5 0 14 -7 21 -15z m1528 -150 c-3
-3 -9 2 -12 12 -6 14 -5 15 5 6 7 -7 10 -15 7 -18z m-1808 -615 c8 -5 11 -10
5 -10 -5 0 -17 5 -25 10 -8 5 -10 10 -5 10 6 0 17 -5 25 -10z m-150 -10 c0 -5
-2 -10 -4 -10 -3 0 -8 5 -11 10 -3 6 -1 10 4 10 6 0 11 -4 11 -10z m180 -5
c-7 -8 -17 -15 -23 -15 -6 0 -2 7 9 15 25 19 30 19 14 0z m1070 -5 c0 -4 -6
-10 -13 -13 -7 -3 -13 3 -13 13 0 10 6 16 13 13 7 -3 13 -9 13 -13z m197 14
c-3 -3 -12 -4 -19 -1 -8 3 -5 6 6 6 11 1 17 -2 13 -5z m-1354 -11 c-7 -2 -19
-2 -25 0 -7 3 -2 5 12 5 14 0 19 -2 13 -5z m1232 -11 c-3 -3 -11 0 -18 7 -9
10 -8 11 6 5 10 -3 15 -9 12 -12z m183 9 c9 -5 3 -8 -17 -7 -17 1 -31 4 -31 9
0 10 32 9 48 -2z m-1534 -31 c-6 -6 -10 -3 -10 10 0 13 4 16 10 10 7 -7 7 -13
0 -20z m-886 13 c-10 -2 -26 -2 -35 0 -10 3 -2 5 17 5 19 0 27 -2 18 -5z
m1112 3 c0 -2 -7 -7 -16 -10 -8 -3 -12 -2 -9 4 6 10 25 14 25 6z m2360 0 c0
-2 -8 -10 -17 -17 -16 -13 -17 -12 -4 4 13 16 21 21 21 13z m-2323 -12 c-3 -3
-12 -4 -19 -1 -8 3 -5 6 6 6 11 1 17 -2 13 -5z m1258 -4 c3 -6 -1 -7 -9 -4
-18 7 -21 14 -7 14 6 0 13 -4 16 -10z m-2375 -10 c0 -5 -2 -10 -4 -10 -3 0 -8
5 -11 10 -3 6 -1 10 4 10 6 0 11 -4 11 -10z m3404 -8 c3 -5 -1 -9 -9 -9 -8 0
-12 4 -9 9 3 4 7 8 9 8 2 0 6 -4 9 -8z m-3347 -17 c4 -4 3 -5 -4 -2 -6 4 -13
2 -15 -5 -3 -8 -6 -6 -10 4 -7 17 15 19 29 3z m37 -1 c3 -8 2 -12 -4 -9 -6 3
-10 10 -10 16 0 14 7 11 14 -7z m1861 7 c3 -5 2 -12 -3 -15 -5 -3 -9 1 -9 9 0
17 3 19 12 6z m43 -5 c-2 -1 -12 -8 -23 -16 -18 -14 -19 -13 -8 1 7 9 10 19 6
23 -4 4 1 4 10 0 10 -3 17 -7 15 -8z m493 1 c-6 -8 -7 -18 -3 -22 4 -5 1 -5
-6 -1 -10 6 -10 11 -1 22 6 8 14 14 16 14 3 0 0 -6 -6 -13z m68 0 c8 -10 7
-14 -4 -14 -8 0 -11 5 -8 10 4 6 -1 8 -11 4 -10 -4 -15 -3 -11 3 8 14 20 12
34 -3z m-1864 -7 c5 -8 11 -8 20 0 10 8 15 8 20 0 4 -6 4 -14 1 -17 -3 -4 -6
-1 -6 6 0 7 -5 9 -12 4 -18 -11 -39 -13 -33 -3 3 5 -1 11 -7 13 -9 4 -10 6 -1
6 6 1 15 -4 18 -9z m-624 -27 c13 -16 12 -17 -3 -4 -10 7 -18 15 -18 17 0 8 8
3 21 -13z m607 -5 c11 -14 10 -18 -10 -28 -21 -10 -21 -10 -5 3 12 10 14 17 8
22 -6 3 -11 11 -11 17 0 6 1 9 3 7 1 -2 8 -12 15 -21z m1883 -7 c14 7 17 6 13
-5 -6 -16 -30 -15 -44 2 -7 9 -7 9 2 2 7 -6 18 -6 29 1z m-1287 -27 c3 -8 2
-12 -4 -9 -6 3 -10 10 -10 16 0 14 7 11 14 -7z m633 -8 c0 -8 -5 -14 -10 -13
-5 1 -12 -4 -15 -12 -2 -8 0 -11 6 -7 6 3 13 2 17 -4 10 -16 24 -2 20 20 -2
12 0 18 5 15 9 -6 8 -24 -4 -43 -5 -8 -12 -10 -19 -4 -7 5 -20 8 -30 7 -18 -3
-15 7 11 38 18 21 19 21 19 3z m1354 -4 c-7 -2 -18 1 -23 6 -8 8 -4 9 13 5 13
-4 18 -8 10 -11z m-3128 1 c3 -5 -1 -13 -8 -20 -10 -10 -14 -9 -18 1 -8 21 15
37 26 19z m35 -7 c-7 -8 -15 -12 -17 -11 -5 6 10 25 20 25 5 0 4 -6 -3 -14z
m469 -11 c0 -8 -6 -16 -14 -19 -11 -4 -11 -1 -3 14 13 24 17 25 17 5z m378 -5
c3 -5 1 -10 -4 -10 -6 0 -11 5 -11 10 0 6 2 10 4 10 3 0 8 -4 11 -10z m2690
-14 c28 -12 66 -38 84 -57 33 -32 70 -100 71 -126 0 -10 -46 -13 -199 -13
-110 0 -202 4 -205 9 -3 5 -6 37 -7 72 -1 35 -6 70 -13 78 -8 11 -8 13 2 7 7
-4 12 -1 12 9 0 47 170 61 255 21z m-3530 -26 c-1 -44 -9 -59 -19 -35 -3 10
-2 13 4 10 7 -4 9 4 6 21 -5 23 -1 44 8 44 1 0 2 -18 1 -40z m807 16 c7 4 8 2
4 -5 -10 -15 -26 -4 -25 17 1 15 2 15 6 -1 2 -9 9 -14 15 -11z m148 -9 c0 -2
-8 -3 -18 -3 -10 0 -19 6 -19 13 0 8 6 9 19 2 10 -5 18 -11 18 -12z m-1216 5
c3 -5 -1 -9 -9 -9 -8 0 -12 4 -9 9 3 4 7 8 9 8 2 0 6 -4 9 -8z m225 -6 c9 -11
9 -16 -1 -22 -7 -4 -10 -4 -6 1 4 4 3 14 -3 22 -6 7 -9 13 -6 13 2 0 10 -6 16
-14z m2032 1 c-6 -8 -7 -18 -3 -22 4 -5 1 -5 -6 -1 -10 6 -10 11 -1 22 6 8 14
14 16 14 3 0 0 -6 -6 -13z m-271 -1 c0 -2 -6 -9 -14 -15 -11 -9 -16 -9 -22 0
-4 7 -3 9 4 5 6 -3 13 -2 17 4 6 10 15 14 15 6z m-1311 -20 c9 -11 9 -16 -1
-22 -7 -4 -10 -4 -6 1 4 4 3 14 -3 22 -6 7 -9 13 -6 13 2 0 10 -6 16 -14z
m578 -12 c-9 -9 -28 6 -21 18 4 6 10 6 17 -1 6 -6 8 -13 4 -17z m1995 5 c-9
-10 -17 -19 -17 -19 0 0 -1 8 -1 18 0 10 8 19 17 19 16 2 17 0 1 -18z m246 4
c-9 -10 -14 -26 -13 -35 2 -10 -2 -21 -7 -25 -6 -3 -8 -1 -4 5 3 6 1 14 -5 17
-7 5 -3 15 12 31 26 27 40 33 17 7z m-961 -4 c-14 -8 -16 -14 -6 -25 6 -7 16
-11 23 -7 6 4 5 -1 -3 -10 -7 -9 -18 -14 -23 -11 -5 3 -7 9 -4 12 3 3 1 12 -6
19 -9 11 -9 17 3 24 8 5 19 9 24 9 6 -1 2 -5 -8 -11z m-275 -31 c-7 -7 -16 -7
-29 1 -10 6 -13 11 -5 11 7 0 10 5 6 11 -4 7 1 7 16 -1 15 -8 19 -15 12 -22z
m1268 18 c0 -3 -4 -8 -10 -11 -5 -3 -10 -1 -10 4 0 6 5 11 10 11 6 0 10 -2 10
-4z m-2625 -18 c5 4 5 1 1 -6 -6 -10 -11 -10 -22 -1 -8 6 -14 14 -14 16 0 3 6
0 13 -6 8 -6 18 -7 22 -3z m351 -3 c-3 -23 -12 -26 -13 -5 -1 11 2 20 7 20 4
0 7 -7 6 -15z m64 -22 c0 -7 -39 17 -46 28 -3 6 5 3 20 -6 14 -10 26 -19 26
-22z m1949 14 c0 -9 -2 -8 -6 1 -2 6 -10 9 -15 6 -7 -4 -8 -2 -4 5 9 13 26 5
25 -12z m-2609 -2 c-7 -9 -15 -13 -17 -11 -7 7 7 26 19 26 6 0 6 -6 -2 -15z
m1940 11 c0 -3 -4 -8 -10 -11 -5 -3 -10 -1 -10 4 0 6 5 11 10 11 6 0 10 -2 10
-4z m-1723 -48 c-9 -5 -20 -16 -25 -24 -8 -14 -10 -14 -22 1 -11 13 -10 15 3
9 10 -3 21 2 28 15 7 11 17 17 22 14 5 -3 2 -10 -6 -15z m1751 -3 c-3 -3 -9 2
-12 12 -6 14 -5 15 5 6 7 -7 10 -15 7 -18z m624 11 c7 4 8 2 4 -5 -9 -13 -26
-5 -25 12 0 9 2 8 6 -1 2 -6 10 -9 15 -6z m-2608 -11 c-7 -16 -24 -21 -24 -6
0 8 7 13 27 20 1 1 0 -6 -3 -14z m686 11 c0 -3 -4 -8 -10 -11 -5 -3 -10 -1
-10 4 0 6 5 11 10 11 6 0 10 -2 10 -4z m593 -26 c-3 -12 -8 -19 -11 -16 -5 6
5 36 12 36 2 0 2 -9 -1 -20z m678 -3 c-10 -9 -11 -8 -5 6 3 10 9 15 12 12 3
-3 0 -11 -7 -18z m-1711 9 c0 -2 -8 -10 -17 -17 -16 -13 -17 -12 -4 4 13 16
21 21 21 13z m14 -20 c-3 -8 -13 -17 -22 -21 -13 -5 -13 -2 3 15 21 24 26 25
19 6z m1243 8 c-3 -3 -12 -4 -19 -1 -8 3 -5 6 6 6 11 1 17 -2 13 -5z m496 -16
c-4 -7 -7 -24 -6 -38 l2 -25 -7 24 c-4 14 -14 27 -21 29 -9 3 -11 0 -6 -8 5
-9 4 -11 -4 -6 -15 10 -3 29 15 22 8 -3 14 -1 14 4 0 6 5 10 11 10 6 0 7 -5 2
-12z m-1310 -13 c-3 -9 -8 -14 -10 -11 -3 3 -2 9 2 15 9 16 15 13 8 -4z m587
1 c0 -3 -4 -8 -10 -11 -5 -3 -10 -1 -10 4 0 6 5 11 10 11 6 0 10 -2 10 -4z
m-1295 -43 c0 -14 -6 -27 -13 -29 -7 -1 -8 0 -2 3 5 2 7 9 4 14 -5 9 1 39 9
39 1 0 3 -12 2 -27z m1313 2 c-3 -3 -9 2 -12 12 -6 14 -5 15 5 6 7 -7 10 -15
7 -18z m-18 -6 c0 -6 -4 -7 -10 -4 -5 3 -10 11 -10 16 0 6 5 7 10 4 6 -3 10
-11 10 -16z m-1100 1 c0 -5 -2 -10 -4 -10 -3 0 -8 5 -11 10 -3 6 -1 10 4 10 6
0 11 -4 11 -10z m550 -41 c0 -4 -8 -10 -17 -14 -14 -5 -15 -3 -6 6 6 6 9 19 6
28 -4 14 -3 14 6 1 6 -8 11 -18 11 -21z m541 14 c13 -16 12 -17 -3 -4 -10 7
-18 15 -18 17 0 8 8 3 21 -13z m-1107 -23 c-6 -6 -10 -3 -10 10 0 13 4 16 10
10 7 -7 7 -13 0 -20z m1299 15 c-3 -9 -8 -14 -10 -11 -3 3 -2 9 2 15 9 16 15
13 8 -4z m-203 -50 c0 -8 -2 -15 -4 -15 -2 0 -6 7 -10 15 -3 8 -1 15 4 15 6 0
10 -7 10 -15z m-560 -72 c-11 -17 -11 -17 -6 0 3 10 7 31 7 45 l2 27 4 -27 c2
-15 -1 -35 -7 -45z m-514 32 c-1 -8 -8 -21 -16 -28 -10 -10 -11 -9 -4 3 5 8 9
18 10 23 3 14 4 17 8 17 2 0 3 -7 2 -15z m-197 -36 c-12 -23 -12 -32 1 -24 18
11 11 -1 -12 -21 -13 -11 -18 -13 -13 -4 10 16 15 43 16 75 0 16 2 17 9 5 5
-8 5 -21 -1 -31z m2785 26 c-4 -8 -11 -12 -16 -9 -6 4 -5 10 3 15 19 12 19 11
13 -6z m-1484 -5 c0 -5 -2 -10 -4 -10 -3 0 -8 5 -11 10 -3 6 -1 10 4 10 6 0
11 -4 11 -10z m693 -15 c-3 -9 -8 -14 -10 -11 -3 3 -2 9 2 15 9 16 15 13 8 -4z
m823 -10 c-9 -9 -16 -13 -16 -8 0 12 22 34 28 28 2 -2 -3 -11 -12 -20z m-802
-11 c3 -8 2 -12 -4 -9 -6 3 -10 10 -10 16 0 14 7 11 14 -7z m780 -10 c5 -14 4
-15 -9 -4 -17 14 -19 20 -6 20 5 0 12 -7 15 -16z m-2551 -55 c2 -8 7 -21 12
-29 8 -13 6 -13 -8 -2 -9 8 -16 17 -15 20 0 4 0 14 -1 22 -1 13 -2 13 -11 0
-7 -12 -9 -10 -7 8 1 18 3 20 15 8 7 -7 14 -19 15 -27z m397 35 c0 0 -8 -8
-18 -17 -16 -15 -18 -15 -18 1 0 10 8 18 18 18 10 0 18 -1 18 -2z m915 -43 c2
-10 -3 -18 -11 -18 -9 0 -10 4 -4 12 5 6 5 16 0 25 -6 8 -10 20 -10 25 1 14
20 -22 25 -44z m418 24 c-3 -9 -8 -14 -10 -11 -3 3 -2 9 2 15 9 16 15 13 8 -4z
m864 0 c0 -8 -4 -12 -9 -9 -5 3 -6 10 -3 15 9 13 12 11 12 -6z m-2564 -1 c3
-3 3 -13 0 -21 -5 -12 -7 -12 -14 -1 -15 23 -4 40 14 22z m391 -21 c-5 -5 -12
-12 -16 -18 -4 -6 -8 -2 -8 8 0 9 7 17 17 17 9 0 12 -3 7 -7z m1326 3 c0 -2
-8 -10 -17 -17 -16 -13 -17 -12 -4 4 13 16 21 21 21 13z m623 -11 c-3 -9 -8
-14 -10 -11 -3 3 -2 9 2 15 9 16 15 13 8 -4z m-2323 -29 c0 -2 -7 -7 -16 -10
-8 -3 -12 -2 -9 4 6 10 25 14 25 6z m334 -9 c3 3 6 1 6 -5 0 -16 -12 -15 -36
4 -18 15 -18 15 2 5 12 -6 24 -7 28 -4z m1010 -26 c-2 -2 -13 4 -24 14 -14 13
-20 14 -20 5 0 -7 -3 -11 -6 -7 -3 3 -3 10 1 16 4 7 14 5 30 -6 13 -10 21 -20
19 -22z m275 25 c9 -11 7 -15 -9 -19 -16 -4 -19 -2 -11 7 6 7 8 16 4 19 -3 4
-4 7 -1 7 3 0 11 -6 17 -14z m-1557 -28 c-15 -15 -26 -4 -18 18 5 13 9 15 18
6 9 -9 9 -15 0 -24z m213 22 c-3 -5 -1 -10 6 -10 7 0 10 -2 7 -5 -3 -3 -13 -2
-22 1 -14 5 -15 9 -4 15 17 11 20 11 13 -1z m780 2 c-2 -3 0 -14 6 -25 9 -15
8 -18 -2 -12 -9 6 -10 3 -5 -10 6 -16 4 -16 -10 -4 -10 8 -12 15 -5 17 6 2 11
8 11 13 0 6 -4 8 -8 5 -5 -3 -9 1 -9 8 0 7 6 13 14 13 7 0 11 -2 8 -5z m-800
-30 c-3 -3 -11 0 -18 7 -9 10 -8 11 6 5 10 -3 15 -9 12 -12z m1286 4 c11 6 11
4 0 -10 -11 -13 -16 -14 -22 -4 -5 7 -9 18 -9 23 0 6 4 4 9 -4 5 -8 14 -10 22
-5z m-1755 -8 c3 -4 -1 -5 -10 -4 -8 1 -18 5 -22 8 -3 4 1 5 10 4 8 -1 18 -5
22 -8z m2559 2 c3 -6 -1 -7 -9 -4 -18 7 -21 14 -7 14 6 0 13 -4 16 -10z m-985
-10 c8 -5 11 -10 5 -10 -5 0 -17 5 -25 10 -8 5 -10 10 -5 10 6 0 17 -5 25 -10z
m1018 -15 c-3 -3 -9 2 -12 12 -6 14 -5 15 5 6 7 -7 10 -15 7 -18z m43 -12 c12
-14 12 -16 0 -8 -11 6 -13 4 -8 -11 7 -19 7 -19 -8 0 -8 10 -12 23 -9 27 7 12
10 11 25 -8z m-2606 -25 c6 -4 2 -8 -7 -8 -10 0 -18 7 -18 17 0 9 3 12 8 7 4
-5 12 -12 17 -16z m1360 -32 c6 -5 -2 -2 -17 7 -16 10 -29 15 -29 12 -1 -3 -2
-9 -3 -14 -3 -26 -12 -16 -12 14 l0 34 26 -22 c14 -12 30 -26 35 -31z m558 17
c-5 -12 -3 -14 7 -8 9 5 11 4 6 -4 -4 -6 -12 -9 -17 -6 -5 4 -9 0 -10 -7 0
-10 -2 -10 -6 0 -2 6 -10 10 -16 6 -7 -3 -2 3 10 14 12 11 19 23 15 27 -4 5
-2 5 5 1 7 -4 9 -14 6 -23z m-1960 -11 c15 -16 15 -18 -1 -18 -10 0 -18 8 -18
18 0 10 1 18 2 18 0 0 8 -8 17 -18z m83 6 c4 -7 4 -10 -1 -6 -4 4 -15 2 -24
-5 -14 -11 -14 -10 -2 6 16 20 18 21 27 5z m594 0 c0 -4 -4 -8 -9 -8 -6 0 -12
4 -15 8 -3 5 1 9 9 9 8 0 15 -4 15 -9z m1963 -13 c-3 -9 -8 -14 -10 -11 -3 3
-2 9 2 15 9 16 15 13 8 -4z m68 -12 c13 -16 12 -17 -3 -4 -17 13 -22 21 -14
21 2 0 10 -8 17 -17z m-2106 -11 c6 -4 11 -19 12 -34 2 -23 0 -26 -11 -15 -8
6 -10 14 -5 17 4 3 4 12 0 19 -5 8 -14 10 -21 6 -9 -5 -11 -4 -6 3 8 14 17 15
31 4z m39 -8 c3 -8 2 -12 -4 -9 -6 3 -10 10 -10 16 0 14 7 11 14 -7z m212 -21
c2 -37 -4 -39 -11 -4 -2 11 -6 25 -9 29 -3 5 0 9 7 9 7 0 13 -15 13 -34z m581
30 c-8 -7 11 -33 25 -33 5 0 6 6 2 13 -4 6 -4 9 0 5 14 -12 6 -23 -17 -23 -18
-1 -23 4 -21 20 3 25 3 25 11 25 3 0 3 -3 0 -7z m1328 -13 c10 -11 16 -20 13
-20 -3 0 -13 9 -23 20 -10 11 -16 20 -13 20 3 0 13 -9 23 -20z m-3379 -16 c-1
-8 -6 -17 -12 -21 -5 -4 -6 -4 -2 1 4 5 3 14 -2 21 -7 8 -5 12 4 12 8 0 13 -6
12 -13z m3365 -1 c13 -15 12 -15 -8 -4 -24 12 -29 21 -14 21 5 0 15 -7 22 -17z
m-2192 -14 c-15 -9 -32 -2 -24 11 3 5 13 6 21 3 12 -4 13 -8 3 -14z m122 4
c13 -16 12 -17 -3 -4 -17 13 -22 21 -14 21 2 0 10 -8 17 -17z m-1108 -8 c4 -8
1 -17 -5 -21 -7 -4 -8 -3 -4 4 4 7 2 12 -4 12 -6 0 -8 5 -5 10 8 14 12 13 18
-5z m634 3 c7 -5 18 -6 25 -2 10 5 10 4 1 -6 -10 -11 -15 -11 -28 0 -12 10
-19 9 -40 -4 -25 -16 -25 -16 -14 2 13 20 37 25 56 10z m603 8 c0 -2 -8 -10
-17 -17 -16 -13 -17 -12 -4 4 13 16 21 21 21 13z m1040 -11 c0 -2 -9 -3 -19
-2 -11 0 -18 5 -15 9 4 6 34 0 34 -7z m280 -11 c0 -8 -8 -14 -17 -14 -14 0
-15 2 -4 9 8 5 10 14 6 21 -5 9 -4 11 3 6 7 -4 12 -14 12 -22z m-1459 -1 c13
-16 12 -17 -3 -4 -17 13 -22 21 -14 21 2 0 10 -8 17 -17z m2126 2 c0 -8 -4
-12 -9 -9 -5 3 -6 10 -3 15 9 13 12 11 12 -6z m-1957 1 c0 -3 -4 -8 -10 -11
-5 -3 -10 -1 -10 4 0 6 5 11 10 11 6 0 10 -2 10 -4z m1210 -6 c0 -5 -2 -10 -4
-10 -3 0 -8 5 -11 10 -3 6 -1 10 4 10 6 0 11 -4 11 -10z m685 0 c-3 -5 -12
-10 -18 -10 -7 0 -6 4 3 10 19 12 23 12 15 0z m-3400 -270 c3 -6 -1 -7 -9 -4
-18 7 -21 14 -7 14 6 0 13 -4 16 -10z m173 -80 c-7 -11 -14 -16 -16 -10 -2 6
-9 7 -14 4 -7 -4 -8 -2 -4 5 4 6 11 9 16 6 5 -3 11 -1 15 5 3 5 8 10 11 10 2
0 -1 -9 -8 -20z m154 -76 c-4 -10 -17 -8 -42 6 -10 6 -6 8 15 6 17 -2 28 -7
27 -12z m406 -167 c13 5 14 3 5 -7 -13 -14 -33 -5 -32 13 0 9 2 9 5 0 3 -7 13
-9 22 -6z m469 -171 c0 -8 -6 -12 -15 -9 -11 5 -11 7 0 14 7 5 13 9 14 9 0 0
1 -6 1 -14z m193 -70 c0 -2 -7 -7 -16 -10 -8 -3 -12 -2 -9 4 6 10 25 14 25 6z
m15 -16 c-3 -5 -12 -10 -18 -10 -7 0 -6 4 3 10 19 12 23 12 15 0z m115 -46 c0
-8 -19 -13 -24 -6 -3 5 1 9 9 9 8 0 15 -2 15 -3z m315 -114 c-3 -5 -12 -10
-18 -10 -7 0 -6 4 3 10 19 12 23 12 15 0z m222 -85 c8 -9 13 -18 11 -21 -3 -2
-13 5 -23 16 -21 23 -11 27 12 5z m337 -147 c-3 -4 -11 -8 -17 -7 -9 0 -9 2 0
5 7 3 9 13 6 22 -4 14 -3 14 5 2 6 -8 8 -18 6 -22z m431 -146 c-3 -3 -11 0
-18 7 -9 10 -8 11 6 5 10 -3 15 -9 12 -12z m24 -38 c14 -12 -19 -1 -35 12 -18
14 -18 14 6 3 14 -6 27 -13 29 -15z m178 -70 c-3 -3 -12 -4 -19 -1 -8 3 -5 6
6 6 11 1 17 -2 13 -5z m208 -84 c3 -6 -1 -7 -9 -4 -18 7 -21 14 -7 14 6 0 13
-4 16 -10z m40 0 c3 -6 -1 -7 -9 -4 -18 7 -21 14 -7 14 6 0 13 -4 16 -10z
m196 -87 c13 -17 13 -17 -6 -3 -11 8 -22 16 -24 17 -2 2 0 3 6 3 6 0 17 -8 24
-17z"/>
<path d="M887 5076 c-84 -35 -133 -72 -178 -134 -105 -147 -118 -356 -32 -515
35 -64 120 -142 190 -175 53 -24 69 -27 173 -27 107 0 119 2 169 28 29 16 76
49 102 74 l49 46 0 -67 0 -66 75 0 75 0 0 420 0 420 -75 0 -75 0 0 -61 0 -61
-47 43 c-80 71 -141 93 -263 96 -93 3 -112 1 -163 -21z m322 -142 c203 -110
202 -438 0 -549 -48 -26 -64 -30 -139 -30 -69 0 -93 4 -126 22 -63 34 -97 66
-129 125 -28 49 -30 60 -30 158 0 89 3 111 22 146 33 62 71 102 117 126 65 33
86 38 162 34 55 -2 82 -9 123 -32z"/>
<path d="M1705 2180 c3 -5 8 -10 11 -10 2 0 4 5 4 10 0 6 -5 10 -11 10 -5 0
-7 -4 -4 -10z"/>
</g>
</svg>
