<svg version="1.1" xmlns="http://www.w3.org/2000/svg" xmlns:xlink="http://www.w3.org/1999/xlink" x="0" y="0" viewBox="0 0 3000 3000" xml:space="preserve"><defs><path id="a" d="M.2 6.5h3000v3000H.2z"/></defs><use xlink:href="#a" overflow="visible" fill="#dbf0fd"/><clipPath id="b"><use xlink:href="#a" overflow="visible"/></clipPath><g clip-path="url(#b)"><path fill="#f6a2a2" d="M2663.2 2383.8l-1083 389.5V1649.4l1083-389.6z"/><path fill="#ee5c64" d="M505.3 2353.9l1074.9 419.4V1649.4L505.3 1229.9z"/><path opacity=".62" fill="#fdda2e" d="M1387 1780.6l1098.1 354.7V999.2L1387 644.5z"/></g><circle cx="2673.8" cy="513.6" r="1090" opacity=".4" clip-path="url(#b)" fill="#fff"/><g stroke="#000" stroke-width="7" stroke-miterlimit="10"><path d="M204.9 697.7V287.5h37.9v199c6.8-11.4 17.2-21.1 31.2-28.8 14-7.8 30.9-11.7 50.8-11.7 18.9 0 35.2 3.9 49 11.7 13.7 7.8 24.3 19.1 31.7 34 7.4 14.9 11.1 32.7 11.1 53.5v152.5h-37.9V552.5c0-24.5-5.8-43.3-17.4-56.4-11.6-13.1-27.9-19.7-48.9-19.7-14.6 0-27.1 2.9-37.4 8.8-10.3 5.9-18.3 13.6-23.8 23.2-5.6 9.6-8.3 20.1-8.3 31.3v157.8h-38zM678 705.3c-25.6 0-48.6-5.5-69.1-16.4-20.5-11-36.7-26.2-48.7-45.8-12-19.5-18-42-18-67.4 0-25.6 6-48.1 18-67.6 12-19.5 28.2-34.7 48.6-45.6 20.4-11 43.4-16.4 69-16.4 25.7 0 48.8 5.5 69.2 16.4 20.4 11 36.6 26.2 48.6 45.6 12 19.5 18 42 18 67.6 0 25.4-6 47.9-18 67.4-12 19.5-28.2 34.8-48.6 45.8-20.4 10.9-43.4 16.4-69 16.4zm0-33.6c18.6 0 35.2-4.1 49.7-12.3 14.5-8.2 26-19.5 34.3-34 8.3-14.5 12.5-31.1 12.5-49.8 0-18.7-4.2-35.4-12.5-49.8-8.3-14.5-19.8-25.8-34.3-34-14.5-8.2-31.1-12.3-49.7-12.3-18.4 0-34.9 4.1-49.5 12.3-14.5 8.2-26 19.5-34.4 34-8.4 14.5-12.6 31.1-12.6 49.8 0 18.6 4.2 35.2 12.6 49.7 8.4 14.5 19.9 25.9 34.4 34.1 14.6 8.2 31.1 12.3 49.5 12.3zM1023.8 697.7l-119.2-244H948l87.2 190.2 76-190.2h25.5l75.8 190.2 87.5-190.2h43.6l-119.4 244H1199l-75.1-185.9-75.1 185.9h-25zM342.7 1221.7c-21.3 0-40.7-5.1-58.2-15.4-17.5-10.2-31.4-24.3-41.7-42.3v50h-37.9V804.1h37.9v215c9.8-17.8 23.5-31.7 40.9-41.7 17.4-10 36.8-15 58.3-15 23.2 0 44 5.6 62.4 16.9 18.4 11.3 33 26.7 43.6 46.1 10.6 19.5 16 41.7 16 66.6 0 25.1-5.4 47.4-16.1 67-10.7 19.5-25.3 34.9-43.6 46-18.4 11.1-38.9 16.7-61.6 16.7zm-9.6-32.9c17.8 0 33.6-4.2 47.3-12.5 13.7-8.3 24.5-19.8 32.4-34.3 7.9-14.5 11.8-31.1 11.8-49.7 0-18.9-4-35.7-11.9-50.3-7.9-14.6-18.7-26.1-32.4-34.3-13.7-8.3-29.4-12.4-47.2-12.4-17.8 0-33.6 4.1-47.4 12.4-13.8 8.3-24.7 19.7-32.7 34.3-7.9 14.6-11.9 31.4-11.9 50.3 0 18.6 3.9 35.2 11.8 49.8 7.9 14.6 18.7 26.1 32.5 34.3 13.9 8.2 29.8 12.4 47.7 12.4zM712.1 1221.7c-25.6 0-48.6-5.5-69.1-16.4-20.5-11-36.7-26.2-48.7-45.8-12-19.5-18-42-18-67.4 0-25.6 6-48.1 18-67.6 12-19.5 28.2-34.7 48.6-45.6 20.4-11 43.4-16.4 69-16.4 25.7 0 48.8 5.5 69.2 16.4 20.4 11 36.6 26.2 48.6 45.6 12 19.5 18 42 18 67.6 0 25.4-6 47.9-18 67.4-12 19.5-28.2 34.8-48.6 45.8-20.4 10.9-43.4 16.4-69 16.4zm0-33.6c18.6 0 35.2-4.1 49.7-12.3 14.5-8.2 26-19.5 34.3-34 8.3-14.5 12.5-31.1 12.5-49.8 0-18.7-4.2-35.4-12.5-49.8-8.3-14.5-19.8-25.8-34.3-34-14.5-8.2-31.1-12.3-49.7-12.3-18.4 0-34.9 4.1-49.5 12.3-14.5 8.2-26 19.5-34.4 34-8.4 14.5-12.6 31.1-12.6 49.8 0 18.6 4.2 35.2 12.6 49.7 8.4 14.5 19.9 25.9 34.4 34.1 14.6 8.2 31 12.3 49.5 12.3zM1094.8 1221.7c-25.6 0-48.6-5.5-69.1-16.4-20.5-11-36.7-26.2-48.7-45.8-12-19.5-18-42-18-67.4 0-25.6 6-48.1 18-67.6 12-19.5 28.2-34.7 48.6-45.6 20.4-11 43.4-16.4 69-16.4 25.7 0 48.8 5.5 69.2 16.4 20.4 11 36.6 26.2 48.6 45.6 12 19.5 18 42 18 67.6 0 25.4-6 47.9-18 67.4-12 19.5-28.2 34.8-48.6 45.8-20.4 10.9-43.4 16.4-69 16.4zm0-33.6c18.6 0 35.2-4.1 49.7-12.3 14.5-8.2 26-19.5 34.3-34 8.3-14.5 12.5-31.1 12.5-49.8 0-18.7-4.2-35.4-12.5-49.8-8.3-14.5-19.8-25.8-34.3-34-14.5-8.2-31.1-12.3-49.7-12.3-18.4 0-34.9 4.1-49.5 12.3-14.5 8.2-26 19.5-34.4 34-8.4 14.5-12.6 31.1-12.6 49.8 0 18.6 4.2 35.2 12.6 49.7 8.4 14.5 19.9 25.9 34.4 34.1 14.6 8.2 31.1 12.3 49.5 12.3zM1360.8 1214V804.1h37.9v265l96.8-99.1h49.6l-112 115.1 117.7 128.9h-48.6l-103.4-114.2V1214h-38zM1738.5 1221.7c-20.2 0-38-4.8-53.5-14.3s-27.6-23-36.3-40.5l19.5-22.4c7.8 15.3 17.8 27 30 35.4 12.2 8.3 25.6 12.5 40 12.5 9.7 0 18.6-1.9 26.7-5.8 8.1-3.9 14.5-9.5 19.3-16.9 4.8-7.4 7.2-16.2 7.2-26.3 0-9.5-2.3-17-6.9-22.4-4.6-5.4-11.4-10.1-20.3-14.1s-19.9-8.5-32.9-13.6c-10.3-4.1-20.3-8.8-30-14.1-9.7-5.2-17.6-11.9-23.8-19.9-6.2-8-9.3-18.2-9.3-30.6 0-12.7 3.4-24.1 10.2-34.1 6.8-10 16.3-17.8 28.4-23.5 12.1-5.6 25.7-8.5 41-8.5 13.5 0 26.3 2.9 38.4 8.6 12.1 5.7 23.1 13.8 33.1 24.3l-16.7 22.4c-15.1-18.7-33.4-28.1-54.8-28.1-12.9 0-23.4 3.4-31.5 10.1-8.1 6.8-12.2 15.5-12.2 26.3 0 8.1 2.6 14.8 7.9 20s12.1 9.8 20.6 13.6c8.5 3.8 17.6 7.5 27.3 11.2 14 5.2 26.2 10.6 36.7 16 10.5 5.4 18.7 12.3 24.5 20.7 5.9 8.4 8.8 19.8 8.8 34.1 0 16.4-3.9 30.5-11.6 42.5-7.7 12-18.4 21.2-32.2 27.6-13.5 6.5-29.5 9.8-47.6 9.8zM308.8 1738c-22.9 0-43.5-5.6-61.8-16.8-18.4-11.2-32.9-26.6-43.6-46.1-10.7-19.5-16.1-41.9-16.1-67 0-24.8 5.2-46.9 15.7-66.4 10.5-19.5 24.9-34.8 43.3-46.1 18.4-11.3 39.2-16.9 62.6-16.9 21.6 0 41.3 5 59 15 17.7 10 31.3 23.9 40.6 41.7v-49.1h37.9v244h-37.9v-50c-10.5 18.1-24.4 32.3-41.8 42.4-17.5 10.2-36.7 15.3-57.9 15.3zm9.3-32.9c18 0 33.8-4.1 47.5-12.4 13.7-8.3 24.5-19.7 32.4-34.3 7.9-14.6 11.8-31.3 11.8-50 0-18.9-3.9-35.6-11.8-50.2-7.9-14.5-18.7-25.9-32.4-34.2-13.7-8.3-29.6-12.4-47.5-12.4-17.6 0-33.4 4.1-47.2 12.4-13.8 8.3-24.7 19.7-32.5 34.2-7.9 14.5-11.8 31.3-11.8 50.2 0 18.7 3.9 35.4 11.8 49.9s18.7 26 32.5 34.3c13.9 8.4 29.6 12.5 47.2 12.5zM595.3 1730.4v-244h37.9v36c7.8-14.3 17.9-25.1 30.3-32.5 12.4-7.4 26.6-11.1 42.7-11.1 7.3 0 14.7.8 22.3 2.4 7.5 1.6 14 3.7 19.4 6.4l-15.5 32.2c-4.8-2.4-10.3-4.3-16.6-5.7-6.3-1.4-12.2-2.1-17.8-2.1-11.1 0-21.6 2.8-31.5 8.5-9.9 5.6-17.9 13-24.1 22-6.2 9.1-9.3 18.7-9.3 29.1v159h-37.8zM969.5 1738c-25.6 0-48.4-5.6-68.5-16.9-20.1-11.3-35.9-26.7-47.5-46.1-11.6-19.5-17.4-41.3-17.4-65.7 0-18.3 3.3-35.3 10-51.1 6.7-15.8 15.9-29.7 27.6-41.6 11.8-11.9 25.4-21.2 41-27.9 15.6-6.7 32.3-10 50-10 24.5 0 46.2 5.3 65.1 15.8 18.9 10.6 33.8 25.1 44.8 43.7s16.7 40.1 17.2 64.6c.2 1.9.2 3.5 0 4.6-.2 1.2-.4 2.7-.7 4.6h-217c0 18.4 4.1 34.8 12.4 49 8.3 14.2 19.7 25.4 34.3 33.5 14.6 8.1 31.5 12.2 50.5 12.2 17.8 0 33.8-3.7 48.1-11.2 14.3-7.5 26.4-18.4 36.2-32.7l27.9 15c-11.6 19.1-27.4 33.8-47.4 44.3-19.9 10.7-42.2 15.9-66.6 15.9zM876 1583.8h177.6c-2.1-14.5-7.2-27.2-15.5-38.3-8.3-11-18.7-19.7-31.3-26.1-12.6-6.4-26.5-9.5-41.6-9.5-15.6 0-29.7 3.1-42.4 9.3-12.7 6.2-23.2 14.9-31.3 26-8.3 11.1-13.4 24-15.5 38.6zM204.9 2246.8v-244h37.9v32.9c9.7-13.3 21.2-23.4 34.7-30.3 13.4-6.8 28.4-10.2 44.9-10.2 19.9 0 37.3 4.6 52.2 13.7 14.9 9.1 25.3 21.7 31 37.5 9.5-15.7 21.5-28.2 36-37.4s31.6-13.8 51.5-13.8c17.3 0 32.7 3.5 46.2 10.6s24.1 17.4 31.9 31c7.8 13.6 11.7 30.1 11.7 49.5v160.6h-38.1V2097c0-21.8-5.7-39-17-51.7-11.4-12.7-26.4-19.1-45.2-19.1-13.2 0-25 2.9-35.5 8.7-10.5 5.8-18.8 13.2-24.9 22.2-6.1 9-9.2 18.4-9.2 28.2v161.6h-38.1v-153.5c0-20.5-5.6-36.8-16.8-49-11.2-12.2-26.1-18.2-44.7-18.2-13 0-24.9 2.8-35.6 8.3-10.7 5.6-19.2 12.7-25.5 21.3-6.3 8.7-9.4 17.7-9.4 27v164h-38zM831.7 2254.4c-22.9 0-43.5-5.6-61.8-16.8-18.4-11.2-32.9-26.6-43.6-46.1-10.7-19.5-16.1-41.9-16.1-67 0-24.8 5.2-46.9 15.7-66.4 10.5-19.5 24.9-34.8 43.3-46.1 18.4-11.3 39.2-16.9 62.6-16.9 21.6 0 41.3 5 59 15 17.7 10 31.3 23.9 40.6 41.7v-49.1h37.9v244h-37.9v-50c-10.5 18.1-24.4 32.3-41.8 42.4-17.5 10.2-36.7 15.3-57.9 15.3zm9.3-32.9c18 0 33.8-4.1 47.5-12.4 13.7-8.3 24.5-19.7 32.4-34.3 7.9-14.6 11.8-31.3 11.8-50 0-18.9-3.9-35.6-11.8-50.2-7.9-14.5-18.7-25.9-32.4-34.2-13.7-8.3-29.6-12.4-47.5-12.4-17.6 0-33.4 4.1-47.2 12.4-13.8 8.3-24.7 19.7-32.5 34.2-7.9 14.5-11.8 31.3-11.8 50.2 0 18.7 3.9 35.4 11.8 49.9s18.7 26 32.5 34.3c13.9 8.3 29.6 12.5 47.2 12.5zM1221.9 2254.4c-22.7 0-43.3-5.6-61.6-16.7-18.4-11.1-32.9-26.5-43.6-46-10.7-19.5-16.1-41.9-16.1-67 0-24.9 5.3-47.1 15.8-66.6 10.6-19.5 25-34.8 43.4-46.1 18.4-11.3 39.3-16.9 62.8-16.9 21.3 0 40.6 5 58 15s31.1 23.9 41.1 41.7v-215.2h37.9v410.2h-37.9v-50c-10.5 18-24.5 32.1-41.9 42.3-17.5 10.2-36.8 15.3-57.9 15.3zm9.5-32.9c17.8 0 33.6-4.1 47.4-12.4 13.8-8.3 24.7-19.7 32.5-34.3 7.9-14.6 11.8-31.2 11.8-49.8 0-18.9-3.9-35.7-11.8-50.3-7.9-14.6-18.7-26.1-32.5-34.3-13.8-8.3-29.6-12.4-47.4-12.4-17.6 0-33.4 4.1-47.2 12.4-13.8 8.3-24.7 19.7-32.5 34.3-7.9 14.6-11.8 31.4-11.8 50.3 0 18.6 3.9 35.2 11.8 49.7s18.7 26 32.5 34.3c13.8 8.3 29.6 12.5 47.2 12.5zM1623 2254.4c-25.6 0-48.4-5.6-68.5-16.9-20.1-11.3-35.9-26.7-47.5-46.1-11.6-19.5-17.4-41.3-17.4-65.7 0-18.3 3.3-35.3 10-51.1 6.7-15.8 15.9-29.7 27.6-41.6 11.8-11.9 25.4-21.2 41-27.9 15.6-6.7 32.3-10 50-10 24.5 0 46.2 5.3 65.1 15.8 18.9 10.6 33.8 25.1 44.8 43.7s16.7 40.1 17.2 64.6c.2 1.9.2 3.5 0 4.6-.2 1.2-.4 2.7-.7 4.6h-216.9c0 18.4 4.1 34.8 12.4 49 8.3 14.2 19.7 25.4 34.3 33.5 14.6 8.1 31.5 12.2 50.5 12.2 17.8 0 33.8-3.7 48.1-11.2 14.3-7.5 26.4-18.4 36.2-32.7l27.9 15c-11.6 19.1-27.4 33.8-47.4 44.3s-42.3 15.9-66.7 15.9zm-93.5-154.2h177.6c-2.1-14.5-7.2-27.2-15.5-38.3-8.3-11-18.7-19.7-31.3-26.1-12.6-6.4-26.5-9.5-41.6-9.5-15.6 0-29.7 3.1-42.4 9.3-12.7 6.2-23.2 14.9-31.3 26-8.3 11.1-13.4 24-15.5 38.6z"/></g></svg>