<?xml version="1.0" encoding="utf-8"?>
<!-- Generator: Adobe Illustrator 24.2.1, SVG Export Plug-In . SVG Version: 6.00 Build 0)  -->
<svg version="1.1" id="Layer_1" xmlns="http://www.w3.org/2000/svg" xmlns:xlink="http://www.w3.org/1999/xlink" x="0px" y="0px"
	 viewBox="0 0 3000 3000" style="enable-background:new 0 0 3000 3000;" xml:space="preserve">
<g>
	<g>
		<defs>
			<rect id="XMLID_1_" x="0.2" y="6.5" width="3000" height="3000"/>
		</defs>
		<use xlink:href="#XMLID_1_"  style="overflow:visible;fill:#DBF0FD;"/>
		<clipPath id="XMLID_3_">
			<use xlink:href="#XMLID_1_"  style="overflow:visible;"/>
		</clipPath>
		<g style="clip-path:url(#XMLID_3_);">
			<g>
				<polygon style="fill:#F6A2A2;" points="2663.2,2383.8 1580.2,2773.3 1580.2,1649.4 2663.2,1259.8 				"/>
				<polygon style="fill:#EE5C64;" points="505.3,2353.9 1580.2,2773.3 1580.2,1649.4 505.3,1229.9 				"/>
			</g>
			<polygon style="opacity:0.62;fill:#FDDA2E;" points="1387,1780.6 2485.1,2135.3 2485.1,999.2 1387,644.5 			"/>
		</g>
		<circle style="opacity:0.4;clip-path:url(#XMLID_3_);fill:#FFFFFF;" cx="2673.8" cy="513.6" r="1090"/>
	</g>
	<g>
		<path style="stroke:#000000;stroke-width:7;stroke-miterlimit:10;" d="M204.9,697.7V287.5h37.9v199c6.8-11.4,17.2-21.1,31.2-28.8
			c14-7.8,30.9-11.7,50.8-11.7c18.9,0,35.2,3.9,49,11.7c13.7,7.8,24.3,19.1,31.7,34c7.4,14.9,11.1,32.7,11.1,53.5v152.5h-37.9V552.5
			c0-24.5-5.8-43.3-17.4-56.4c-11.6-13.1-27.9-19.7-48.9-19.7c-14.6,0-27.1,2.9-37.4,8.8c-10.3,5.9-18.3,13.6-23.8,23.2
			c-5.6,9.6-8.3,20.1-8.3,31.3v157.8H204.9z"/>
		<path style="stroke:#000000;stroke-width:7;stroke-miterlimit:10;" d="M678,705.3c-25.6,0-48.6-5.5-69.1-16.4
			c-20.5-11-36.7-26.2-48.7-45.8c-12-19.5-18-42-18-67.4c0-25.6,6-48.1,18-67.6c12-19.5,28.2-34.7,48.6-45.6
			c20.4-11,43.4-16.4,69-16.4c25.7,0,48.8,5.5,69.2,16.4c20.4,11,36.6,26.2,48.6,45.6c12,19.5,18,42,18,67.6c0,25.4-6,47.9-18,67.4
			c-12,19.5-28.2,34.8-48.6,45.8C726.6,699.8,703.6,705.3,678,705.3z M678,671.7c18.6,0,35.2-4.1,49.7-12.3
			c14.5-8.2,26-19.5,34.3-34c8.3-14.5,12.5-31.1,12.5-49.8c0-18.7-4.2-35.4-12.5-49.8c-8.3-14.5-19.8-25.8-34.3-34
			c-14.5-8.2-31.1-12.3-49.7-12.3c-18.4,0-34.9,4.1-49.5,12.3c-14.5,8.2-26,19.5-34.4,34c-8.4,14.5-12.6,31.1-12.6,49.8
			c0,18.6,4.2,35.2,12.6,49.7c8.4,14.5,19.9,25.9,34.4,34.1C643.1,667.6,659.6,671.7,678,671.7z"/>
		<path style="stroke:#000000;stroke-width:7;stroke-miterlimit:10;" d="M1023.8,697.7l-119.2-244H948l87.2,190.2l76-190.2h25.5
			l75.8,190.2l87.5-190.2h43.6l-119.4,244H1199l-75.1-185.9l-75.1,185.9H1023.8z"/>
		<path style="stroke:#000000;stroke-width:7;stroke-miterlimit:10;" d="M342.7,1221.7c-21.3,0-40.7-5.1-58.2-15.4
			c-17.5-10.2-31.4-24.3-41.7-42.3v50h-37.9V804.1h37.9v215c9.8-17.8,23.5-31.7,40.9-41.7c17.4-10,36.8-15,58.3-15
			c23.2,0,44,5.6,62.4,16.9c18.4,11.3,33,26.7,43.6,46.1c10.6,19.5,16,41.7,16,66.6c0,25.1-5.4,47.4-16.1,67
			c-10.7,19.5-25.3,34.9-43.6,46C385.9,1216.1,365.4,1221.7,342.7,1221.7z M333.1,1188.8c17.8,0,33.6-4.2,47.3-12.5
			c13.7-8.3,24.5-19.8,32.4-34.3c7.9-14.5,11.8-31.1,11.8-49.7c0-18.9-4-35.7-11.9-50.3c-7.9-14.6-18.7-26.1-32.4-34.3
			c-13.7-8.3-29.4-12.4-47.2-12.4c-17.8,0-33.6,4.1-47.4,12.4c-13.8,8.3-24.7,19.7-32.7,34.3c-7.9,14.6-11.9,31.4-11.9,50.3
			c0,18.6,3.9,35.2,11.8,49.8c7.9,14.6,18.7,26.1,32.5,34.3C299.3,1184.6,315.2,1188.8,333.1,1188.8z"/>
		<path style="stroke:#000000;stroke-width:7;stroke-miterlimit:10;" d="M712.1,1221.7c-25.6,0-48.6-5.5-69.1-16.4
			c-20.5-11-36.7-26.2-48.7-45.8c-12-19.5-18-42-18-67.4c0-25.6,6-48.1,18-67.6c12-19.5,28.2-34.7,48.6-45.6
			c20.4-11,43.4-16.4,69-16.4c25.7,0,48.8,5.5,69.2,16.4c20.4,11,36.6,26.2,48.6,45.6c12,19.5,18,42,18,67.6c0,25.4-6,47.9-18,67.4
			c-12,19.5-28.2,34.8-48.6,45.8C760.7,1216.2,737.7,1221.7,712.1,1221.7z M712.1,1188.1c18.6,0,35.2-4.1,49.7-12.3
			c14.5-8.2,26-19.5,34.3-34c8.3-14.5,12.5-31.1,12.5-49.8c0-18.7-4.2-35.4-12.5-49.8c-8.3-14.5-19.8-25.8-34.3-34
			c-14.5-8.2-31.1-12.3-49.7-12.3c-18.4,0-34.9,4.1-49.5,12.3c-14.5,8.2-26,19.5-34.4,34c-8.4,14.5-12.6,31.1-12.6,49.8
			c0,18.6,4.2,35.2,12.6,49.7c8.4,14.5,19.9,25.9,34.4,34.1C677.2,1184,693.6,1188.1,712.1,1188.1z"/>
		<path style="stroke:#000000;stroke-width:7;stroke-miterlimit:10;" d="M1094.8,1221.7c-25.6,0-48.6-5.5-69.1-16.4
			c-20.5-11-36.7-26.2-48.7-45.8c-12-19.5-18-42-18-67.4c0-25.6,6-48.1,18-67.6c12-19.5,28.2-34.7,48.6-45.6
			c20.4-11,43.4-16.4,69-16.4c25.7,0,48.8,5.5,69.2,16.4c20.4,11,36.6,26.2,48.6,45.6c12,19.5,18,42,18,67.6c0,25.4-6,47.9-18,67.4
			c-12,19.5-28.2,34.8-48.6,45.8C1143.4,1216.2,1120.4,1221.7,1094.8,1221.7z M1094.8,1188.1c18.6,0,35.2-4.1,49.7-12.3
			c14.5-8.2,26-19.5,34.3-34c8.3-14.5,12.5-31.1,12.5-49.8c0-18.7-4.2-35.4-12.5-49.8c-8.3-14.5-19.8-25.8-34.3-34
			c-14.5-8.2-31.1-12.3-49.7-12.3c-18.4,0-34.9,4.1-49.5,12.3c-14.5,8.2-26,19.5-34.4,34c-8.4,14.5-12.6,31.1-12.6,49.8
			c0,18.6,4.2,35.2,12.6,49.7c8.4,14.5,19.9,25.9,34.4,34.1C1059.9,1184,1076.4,1188.1,1094.8,1188.1z"/>
		<path style="stroke:#000000;stroke-width:7;stroke-miterlimit:10;" d="M1360.8,1214V804.1h37.9v265l96.8-99.1h49.6l-112,115.1
			l117.7,128.9h-48.6l-103.4-114.2V1214H1360.8z"/>
		<path style="stroke:#000000;stroke-width:7;stroke-miterlimit:10;" d="M1738.5,1221.7c-20.2,0-38-4.8-53.5-14.3
			c-15.5-9.5-27.6-23-36.3-40.5l19.5-22.4c7.8,15.3,17.8,27,30,35.4c12.2,8.3,25.6,12.5,40,12.5c9.7,0,18.6-1.9,26.7-5.8
			c8.1-3.9,14.5-9.5,19.3-16.9c4.8-7.4,7.2-16.2,7.2-26.3c0-9.5-2.3-17-6.9-22.4c-4.6-5.4-11.4-10.1-20.3-14.1
			c-8.9-4-19.9-8.5-32.9-13.6c-10.3-4.1-20.3-8.8-30-14.1c-9.7-5.2-17.6-11.9-23.8-19.9c-6.2-8-9.3-18.2-9.3-30.6
			c0-12.7,3.4-24.1,10.2-34.1c6.8-10,16.3-17.8,28.4-23.5c12.1-5.6,25.7-8.5,41-8.5c13.5,0,26.3,2.9,38.4,8.6
			c12.1,5.7,23.1,13.8,33.1,24.3l-16.7,22.4c-15.1-18.7-33.4-28.1-54.8-28.1c-12.9,0-23.4,3.4-31.5,10.1
			c-8.1,6.8-12.2,15.5-12.2,26.3c0,8.1,2.6,14.8,7.9,20s12.1,9.8,20.6,13.6c8.5,3.8,17.6,7.5,27.3,11.2c14,5.2,26.2,10.6,36.7,16
			c10.5,5.4,18.7,12.3,24.5,20.7c5.9,8.4,8.8,19.8,8.8,34.1c0,16.4-3.9,30.5-11.6,42.5c-7.7,12-18.4,21.2-32.2,27.6
			C1772.6,1218.4,1756.6,1221.7,1738.5,1221.7z"/>
		<path style="stroke:#000000;stroke-width:7;stroke-miterlimit:10;" d="M308.8,1738c-22.9,0-43.5-5.6-61.8-16.8
			c-18.4-11.2-32.9-26.6-43.6-46.1c-10.7-19.5-16.1-41.9-16.1-67c0-24.8,5.2-46.9,15.7-66.4c10.5-19.5,24.9-34.8,43.3-46.1
			c18.4-11.3,39.2-16.9,62.6-16.9c21.6,0,41.3,5,59,15c17.7,10,31.3,23.9,40.6,41.7v-49.1h37.9v244h-37.9v-50
			c-10.5,18.1-24.4,32.3-41.8,42.4C349.2,1732.9,330,1738,308.8,1738z M318.1,1705.1c18,0,33.8-4.1,47.5-12.4
			c13.7-8.3,24.5-19.7,32.4-34.3c7.9-14.6,11.8-31.3,11.8-50c0-18.9-3.9-35.6-11.8-50.2c-7.9-14.5-18.7-25.9-32.4-34.2
			c-13.7-8.3-29.6-12.4-47.5-12.4c-17.6,0-33.4,4.1-47.2,12.4c-13.8,8.3-24.7,19.7-32.5,34.2c-7.9,14.5-11.8,31.3-11.8,50.2
			c0,18.7,3.9,35.4,11.8,49.9c7.9,14.5,18.7,26,32.5,34.3C284.8,1701,300.5,1705.1,318.1,1705.1z"/>
		<path style="stroke:#000000;stroke-width:7;stroke-miterlimit:10;" d="M595.3,1730.4v-244h37.9v36c7.8-14.3,17.9-25.1,30.3-32.5
			c12.4-7.4,26.6-11.1,42.7-11.1c7.3,0,14.7,0.8,22.3,2.4c7.5,1.6,14,3.7,19.4,6.4l-15.5,32.2c-4.8-2.4-10.3-4.3-16.6-5.7
			c-6.3-1.4-12.2-2.1-17.8-2.1c-11.1,0-21.6,2.8-31.5,8.5c-9.9,5.6-17.9,13-24.1,22c-6.2,9.1-9.3,18.7-9.3,29.1v159H595.3z"/>
		<path style="stroke:#000000;stroke-width:7;stroke-miterlimit:10;" d="M969.5,1738c-25.6,0-48.4-5.6-68.5-16.9
			c-20.1-11.3-35.9-26.7-47.5-46.1c-11.6-19.5-17.4-41.3-17.4-65.7c0-18.3,3.3-35.3,10-51.1c6.7-15.8,15.9-29.7,27.6-41.6
			c11.8-11.9,25.4-21.2,41-27.9c15.6-6.7,32.3-10,50-10c24.5,0,46.2,5.3,65.1,15.8c18.9,10.6,33.8,25.1,44.8,43.7
			c11,18.6,16.7,40.1,17.2,64.6c0.2,1.9,0.2,3.5,0,4.6c-0.2,1.2-0.4,2.7-0.7,4.6H874.1c0,18.4,4.1,34.8,12.4,49
			c8.3,14.2,19.7,25.4,34.3,33.5c14.6,8.1,31.5,12.2,50.5,12.2c17.8,0,33.8-3.7,48.1-11.2c14.3-7.5,26.4-18.4,36.2-32.7l27.9,15
			c-11.6,19.1-27.4,33.8-47.4,44.3C1016.2,1732.8,993.9,1738,969.5,1738z M876,1583.8h177.6c-2.1-14.5-7.2-27.2-15.5-38.3
			c-8.3-11-18.7-19.7-31.3-26.1c-12.6-6.4-26.5-9.5-41.6-9.5c-15.6,0-29.7,3.1-42.4,9.3c-12.7,6.2-23.2,14.9-31.3,26
			C883.2,1556.3,878.1,1569.2,876,1583.8z"/>
		<path style="stroke:#000000;stroke-width:7;stroke-miterlimit:10;" d="M204.9,2246.8v-244h37.9v32.9c9.7-13.3,21.2-23.4,34.7-30.3
			c13.4-6.8,28.4-10.2,44.9-10.2c19.9,0,37.3,4.6,52.2,13.7c14.9,9.1,25.3,21.7,31,37.5c9.5-15.7,21.5-28.2,36-37.4
			c14.5-9.2,31.6-13.8,51.5-13.8c17.3,0,32.7,3.5,46.2,10.6c13.5,7.1,24.1,17.4,31.9,31c7.8,13.6,11.7,30.1,11.7,49.5v160.6h-38.1
			v-149.9c0-21.8-5.7-39-17-51.7c-11.4-12.7-26.4-19.1-45.2-19.1c-13.2,0-25,2.9-35.5,8.7c-10.5,5.8-18.8,13.2-24.9,22.2
			c-6.1,9-9.2,18.4-9.2,28.2v161.6h-38.1v-153.5c0-20.5-5.6-36.8-16.8-49c-11.2-12.2-26.1-18.2-44.7-18.2c-13,0-24.9,2.8-35.6,8.3
			c-10.7,5.6-19.2,12.7-25.5,21.3c-6.3,8.7-9.4,17.7-9.4,27v164H204.9z"/>
		<path style="stroke:#000000;stroke-width:7;stroke-miterlimit:10;" d="M831.7,2254.4c-22.9,0-43.5-5.6-61.8-16.8
			c-18.4-11.2-32.9-26.6-43.6-46.1c-10.7-19.5-16.1-41.9-16.1-67c0-24.8,5.2-46.9,15.7-66.4c10.5-19.5,24.9-34.8,43.3-46.1
			c18.4-11.3,39.2-16.9,62.6-16.9c21.6,0,41.3,5,59,15c17.7,10,31.3,23.9,40.6,41.7v-49.1h37.9v244h-37.9v-50
			c-10.5,18.1-24.4,32.3-41.8,42.4C872.1,2249.3,852.9,2254.4,831.7,2254.4z M841,2221.5c18,0,33.8-4.1,47.5-12.4
			c13.7-8.3,24.5-19.7,32.4-34.3c7.9-14.6,11.8-31.3,11.8-50c0-18.9-3.9-35.6-11.8-50.2c-7.9-14.5-18.7-25.9-32.4-34.2
			c-13.7-8.3-29.6-12.4-47.5-12.4c-17.6,0-33.4,4.1-47.2,12.4c-13.8,8.3-24.7,19.7-32.5,34.2c-7.9,14.5-11.8,31.3-11.8,50.2
			c0,18.7,3.9,35.4,11.8,49.9c7.9,14.5,18.7,26,32.5,34.3C807.7,2217.3,823.4,2221.5,841,2221.5z"/>
		<path style="stroke:#000000;stroke-width:7;stroke-miterlimit:10;" d="M1221.9,2254.4c-22.7,0-43.3-5.6-61.6-16.7
			c-18.4-11.1-32.9-26.5-43.6-46c-10.7-19.5-16.1-41.9-16.1-67c0-24.9,5.3-47.1,15.8-66.6c10.6-19.5,25-34.8,43.4-46.1
			c18.4-11.3,39.3-16.9,62.8-16.9c21.3,0,40.6,5,58,15c17.4,10,31.1,23.9,41.1,41.7v-215.2h37.9v410.2h-37.9v-50
			c-10.5,18-24.5,32.1-41.9,42.3C1262.3,2249.3,1243,2254.4,1221.9,2254.4z M1231.4,2221.5c17.8,0,33.6-4.1,47.4-12.4
			c13.8-8.3,24.7-19.7,32.5-34.3c7.9-14.6,11.8-31.2,11.8-49.8c0-18.9-3.9-35.7-11.8-50.3c-7.9-14.6-18.7-26.1-32.5-34.3
			c-13.8-8.3-29.6-12.4-47.4-12.4c-17.6,0-33.4,4.1-47.2,12.4c-13.8,8.3-24.7,19.7-32.5,34.3c-7.9,14.6-11.8,31.4-11.8,50.3
			c0,18.6,3.9,35.2,11.8,49.7c7.9,14.5,18.7,26,32.5,34.3C1198,2217.3,1213.8,2221.5,1231.4,2221.5z"/>
		<path style="stroke:#000000;stroke-width:7;stroke-miterlimit:10;" d="M1623,2254.4c-25.6,0-48.4-5.6-68.5-16.9
			c-20.1-11.3-35.9-26.7-47.5-46.1c-11.6-19.5-17.4-41.3-17.4-65.7c0-18.3,3.3-35.3,10-51.1c6.7-15.8,15.9-29.7,27.6-41.6
			c11.8-11.9,25.4-21.2,41-27.9c15.6-6.7,32.3-10,50-10c24.5,0,46.2,5.3,65.1,15.8c18.9,10.6,33.8,25.1,44.8,43.7
			c11,18.6,16.7,40.1,17.2,64.6c0.2,1.9,0.2,3.5,0,4.6c-0.2,1.2-0.4,2.7-0.7,4.6h-216.9c0,18.4,4.1,34.8,12.4,49
			c8.3,14.2,19.7,25.4,34.3,33.5c14.6,8.1,31.5,12.2,50.5,12.2c17.8,0,33.8-3.7,48.1-11.2c14.3-7.5,26.4-18.4,36.2-32.7l27.9,15
			c-11.6,19.1-27.4,33.8-47.4,44.3S1647.4,2254.4,1623,2254.4z M1529.5,2100.2h177.6c-2.1-14.5-7.2-27.2-15.5-38.3
			c-8.3-11-18.7-19.7-31.3-26.1c-12.6-6.4-26.5-9.5-41.6-9.5c-15.6,0-29.7,3.1-42.4,9.3c-12.7,6.2-23.2,14.9-31.3,26
			C1536.7,2072.7,1531.6,2085.6,1529.5,2100.2z"/>
	</g>
</g>
</svg>
